' @autogenerated
@startuml Paquete de document
title Paquete de document
left to right direction
class document.Template{
uid:string
code:string
theme:string
channel:TemplateChannelOptions
enabled:boolean
version:integer
list()
retrieve()
create()
update()
delete()
enable()
disable()
}
access.Tenant "1"  o--  "N*" document.Template: tenant 

class document.Snippet{
uid:string
code:string
enabled:boolean
version:integer
list()
retrieve()
create()
update()
delete()
enable()
disable()
}
access.Tenant "1"  o--  "N*" document.Snippet: tenant 

class document.ThemeVersion{
uid:string
channel:ThemeVersionChannelOptions
locale:string
contentHtml:blob
contentText:blob
version:integer
list()
retrieve()
create()
update()
delete()
}
document.Theme "1"  o--  "N*" document.ThemeVersion: theme 

class document.SnippetVersion{
uid:string
locale:string
subject:string
contentHtml:blob
contentText:blob
version:integer
list()
retrieve()
create()
update()
delete()
}
document.Snippet "1"  o--  "N*" document.SnippetVersion: snippet 

class document.TemplateVersion{
uid:string
locale:string
subject:string
contentHtml:blob
contentText:blob
version:integer
list()
retrieve()
create()
update()
delete()
}
document.Template "1"  o--  "N*" document.TemplateVersion: template 

class document.SnippetAsset{
uid:string
code:string
type:string
content:binary
enabled:boolean
version:integer
list()
retrieve()
create()
update()
delete()
enable()
disable()
}
document.Snippet "1"  o--  "N*" document.SnippetAsset: snippet 

class document.TemplateVariable{
uid:string
code:string
type:string
value:string
enabled:boolean
version:integer
list()
retrieve()
create()
update()
delete()
enable()
disable()
}
access.Tenant "1"  o--  "N*" document.TemplateVariable: tenant 

class document.Theme{
uid:string
name:string
isDefault:boolean
enabled:boolean
version:integer
list()
retrieve()
create()
update()
delete()
enable()
disable()
}
access.Tenant "1"  o--  "N*" document.Theme: tenant 

class document.TemplateAsset{
uid:string
code:string
type:string
content:binary
enabled:boolean
version:integer
list()
retrieve()
create()
update()
delete()
enable()
disable()
}
document.Template "1"  o--  "N*" document.TemplateAsset: template 
access.Tenant "1"  o--  "N*" document.TemplateAsset: tenant 

class document.ThemeAsset{
uid:string
code:string
type:string
content:binary
enabled:boolean
version:integer
list()
retrieve()
create()
update()
delete()
enable()
disable()
}
document.Theme "1"  o--  "N*" document.ThemeAsset: theme 

access.Tenant "1"  o--  "N*" document.Template: tenant  
access.Tenant "1"  o--  "N*" document.Snippet: tenant  
document.Theme "1"  o--  "N*" document.ThemeVersion: theme  
document.Snippet "1"  o--  "N*" document.SnippetVersion: snippet  
document.Template "1"  o--  "N*" document.TemplateVersion: template  
document.Snippet "1"  o--  "N*" document.SnippetAsset: snippet  
access.Tenant "1"  o--  "N*" document.TemplateVariable: tenant  
access.Tenant "1"  o--  "N*" document.Theme: tenant  
document.Template "1"  o--  "N*" document.TemplateAsset: template  
access.Tenant "1"  o--  "N*" document.TemplateAsset: tenant  
document.Theme "1"  o--  "N*" document.ThemeAsset: theme  

footer Generado el %date("dd.MM.yyyy' a las 'HH:mm")
@enduml
