' @autogenerated
@startuml
left to right direction
title Clases para user group membership
class access.User{
uid:string
name:string
password:string
email:string
wellcomeAt:datetime
enabled:boolean
approve:UserApproveOptions
temporalPassword:boolean
useSecondFactors:boolean
secondFactorSeed:string
blockedUntil:datetime
provider:string
version:integer
list()
retrieve()
create()
update()
delete()
register()
verify()
accept()
reject()
disable()
enable()
unlock()
block()
setMfaSeed()
changePassword()
}
class access.RelyingParty{
uid:string
code:string
apiKey:string
enabled:boolean
version:integer
list()
retrieve()
create()
update()
delete()
enable()
disable()
}
class access.TrustedClient{
uid:string
code:string
allowAllScopes:boolean
publicAllow:boolean
secretOauth:string
backChannelLogoutUri:string
backChannelLogoutSessionRequired:boolean
frontChannelLogoutUri:string
frontChannelLogoutSessionRequired:boolean
enabled:boolean
version:integer
list()
retrieve()
create()
update()
delete()
enable()
disable()
}
class access.UserGroupMembership{
uid:string
groups:blob
version:integer
list()
retrieve()
create()
update()
delete()
}
access.User "1"  o--  "N*" access.UserGroupMembership: user
access.RelyingParty "1"  o--  "N*" access.UserGroupMembership: relyingParty
access.TrustedClient "1"  o--  "N*" access.UserGroupMembership: trustedClient

footer Generado el %date("dd.MM.yyyy' a las 'HH:mm")
@enduml
