' @autogenerated
@startuml
left to right direction
title Clases para template
class access.Tenant{
uid:string
name:string
root:boolean
domain:string
enabled:boolean
markForDelete:boolean
markForDeleteTime:datetime
version:integer
list()
retrieve()
create()
update()
delete()
enable()
disable()
}
class template.TemplateTheme{
uid:string
name:string
isDefault:boolean
enabled:boolean
customCss:string
version:integer
list()
retrieve()
create()
update()
delete()
enable()
disable()
}
class template.Template{
uid:string
code:string
channel:TemplateChannelOptions
enabled:boolean
version:integer
list()
retrieve()
create()
update()
delete()
enable()
disable()
}
access.Tenant "1"  o--  "N*" template.Template: tenant
template.TemplateTheme "1"  o--  "N*" template.Template: theme

footer Generado el %date("dd.MM.yyyy' a las 'HH:mm")
@enduml
