' @autogenerated
@startuml Paquete de access
title Paquete de access
left to right direction
class access.UserRoleAssignament{
uid:string
version:integer
list()
retrieve()
create()
update()
delete()
}
access.User "1"  o--  "N*" access.UserRoleAssignament: user 
access.RelyingParty "1"  o--  "N*" access.UserRoleAssignament: relyingParty 
access.TrustedClient "1"  o--  "N*" access.UserRoleAssignament: trustedClient 

class access.UserConsentPurposes{
uid:string
granted:boolean
decisionAt:datetime
ipAddress:string
userAgent:string
version:integer
list()
retrieve()
create()
update()
delete()
}
access.User "1"  o--  "N*" access.UserConsentPurposes: user 
access.ConsentPurpose "1"  o--  "N*" access.UserConsentPurposes: consentPurpose 

class access.Role{
uid:string
name:string
version:integer
list()
retrieve()
create()
update()
delete()
}
access.RelyingParty "1"  o--  "N*" access.Role: relyingParty 

class access.UserGroupMembership{
uid:string
groups:blob
version:integer
list()
retrieve()
create()
update()
delete()
}
access.User "1"  o--  "N*" access.UserGroupMembership: user 
access.RelyingParty "1"  o--  "N*" access.UserGroupMembership: relyingParty 
access.TrustedClient "1"  o--  "N*" access.UserGroupMembership: trustedClient 

class access.UserAccessTemporalCode{
uid:string
tempSecondFactorSeed:string
tempSecondFactorSeedExpiration:datetime
failedLoginAttempts:integer
registerCode:string
registerCodeUrl:blob
registerCodeExpiration:datetime
recoveryCode:string
recoveryCodeExpiration:datetime
version:integer
list()
retrieve()
create()
update()
delete()
markLoginFail()
markLoginBlock()
markLoginOk()
generateMfaTemporalCode()
resetMfaTemporalCode()
generatedRegisterVerification()
resetRegisterVerification()
generatePasswordRecover()
resetPasswordRecover()
}
access.User "1"  o--  "N*" access.UserAccessTemporalCode: user 

class access.RelyingParty{
uid:string
code:string
apiKey:string
enabled:boolean
version:integer
list()
retrieve()
create()
update()
delete()
enable()
disable()
}

class access.UserAcceptedTermnsOfUse{
uid:string
acceptDate:datetime
ipAddress:string
userAgent:string
version:integer
list()
retrieve()
create()
update()
delete()
}
access.User "1"  o--  "N*" access.UserAcceptedTermnsOfUse: user 
access.TenantTermsOfUse "1"  o--  "N*" access.UserAcceptedTermnsOfUse: conditions 

class access.ApiKeyClient{
uid:string
code:string
key:string
enabled:boolean
scopes:string
version:integer
list()
retrieve()
create()
update()
delete()
enable()
disable()
}

class access.Tenant{
uid:string
name:string
root:boolean
domain:string
enabled:boolean
markForDelete:boolean
markForDeleteTime:datetime
version:integer
list()
retrieve()
create()
update()
delete()
enable()
disable()
}

class access.UserProfile{
uid:string
givenName:string
familyName:string
middleName:string
nickname:string
preferredUsername:string
pictureUrl:string
websiteUrl:string
gender:string
birthdate:string
zoneinfo:string
locale:string
phoneNumber:string
phoneNumberVerified:boolean
addressJson:blob
updatedAt:string
version:integer
list()
retrieve()
create()
update()
delete()
}
access.User "1"  o--  "N*" access.UserProfile: user 

class access.TrustedClient{
uid:string
code:string
allowAllScopes:boolean
publicAllow:boolean
secretOauth:string
backChannelLogoutUri:string
backChannelLogoutSessionRequired:boolean
frontChannelLogoutUri:string
frontChannelLogoutSessionRequired:boolean
enabled:boolean
registrationAccess:string
clientName:string
logoUri:string
clientUri:string
policyUri:string
tosUri:string
tokenEndpointAuthMethod:string
grantTypesJson:blob
responseTypesJson:blob
dynamicallyRegistered:boolean
registeredAt:datetime
allowedScopesM2m:blob
m2mTokenTtlSeconds:integer
requestObjectSigningAlg:string
jwksUri:blob
jwksJson:blob
version:integer
list()
retrieve()
create()
update()
delete()
enable()
disable()
}

class access.TenantConfig{
uid:string
innerLabel:string
forceMfa:boolean
dynamicRegistrationPolicy:TenantConfigDynamicRegistrationPolicyOptions
allowRegister:boolean
enableRegisterUsers:boolean
magicLinkEnabled:boolean
webauthnEnabled:boolean
webauthnRpId:string
webauthnRpName:string
wellcomeEmail:blob
registerdEmail:blob
disabledUserEmail:blob
enabledUserEmail:blob
allowRecoverPass:boolean
recoverPassEmail:blob
version:integer
list()
retrieve()
create()
update()
delete()
}
access.Tenant "1"  o--  "N*" access.TenantConfig: tenant 

class access.ConsentPurpose{
uid:string
key:ConsentPurposeKeyOptions
title:string
description:blob
required:boolean
activationDate:datetime
version:integer
list()
retrieve()
create()
update()
delete()
}
access.Tenant "1"  o--  "N*" access.ConsentPurpose: tenant 

class access.UserInvitation{
uid:string
email:string
roles:string
tokenHash:string
metadataJson:blob
status:UserInvitationStatusOptions
createdAt:datetime
expiredAt:datetime
acceptedAt:datetime
version:integer
list()
retrieve()
create()
update()
delete()
}
access.Tenant "1"  o--  "N*" access.UserInvitation: tenant 
access.User "1"  o--  "N*" access.UserInvitation: invitedBy 
access.User "1"  o--  "N*" access.UserInvitation: acceptedBy 

class access.TenantLoginProvider{
uid:string
name:string
source:TenantLoginProviderSourceOptions
disabled:boolean
directAccess:boolean
publicKey:string
privateKey:string
certificate:blob
metadata:binary
samlIdpMetadataUrl:string
samlIdpEntityId:string
samlIdpSsoUrl:string
samlIdpIdpCert:binary
usersEnabledByDefault:boolean
version:integer
list()
retrieve()
create()
update()
delete()
enable()
disable()
}
access.Tenant "1"  o--  "N*" access.TenantLoginProvider: tenant 

class access.TenantTermsOfUse{
uid:string
text:blob
enabled:boolean
attached:binary
activationDate:datetime
version:integer
list()
retrieve()
create()
update()
delete()
enable()
disable()
}
access.Tenant "1"  o--  "N*" access.TenantTermsOfUse: tenant 
access.RelyingParty "1"  o--  "N*" access.TenantTermsOfUse: relyingParty 

class access.UserConsentedScopes{
uid:string
scope:string
granted:boolean
decisionAt:datetime
ipAddress:string
userAgent:string
version:integer
list()
retrieve()
create()
update()
delete()
}
access.User "1"  o--  "N*" access.UserConsentedScopes: user 
access.TrustedClient "1"  o--  "N*" access.UserConsentedScopes: trustedClient 

class access.UserWebauthnCredential{
uid:string
autenticator:string
name:string
publicKey:blob
signCount:integer
aaguid:string
deviceName:string
transportsJson:blob
createdAt:datetime
lastUsedAt:datetime
enabled:boolean
version:integer
list()
retrieve()
create()
update()
delete()
enable()
disable()
}
access.User "1"  o--  "N*" access.UserWebauthnCredential: user 

class access.User{
uid:string
name:string
password:string
email:string
wellcomeAt:datetime
enabled:boolean
approve:UserApproveOptions
temporalPassword:boolean
useSecondFactors:boolean
secondFactorSeed:string
blockedUntil:datetime
provider:string
version:integer
list()
retrieve()
create()
update()
delete()
register()
verify()
accept()
reject()
disable()
enable()
unlock()
block()
setMfaSeed()
changePassword()
}
access.Tenant "1"  o--  "N*" access.User: tenant 

access.User "1"  o--  "N*" access.UserRoleAssignament: user  
access.RelyingParty "1"  o--  "N*" access.UserRoleAssignament: relyingParty  
access.TrustedClient "1"  o--  "N*" access.UserRoleAssignament: trustedClient  
access.UserRoleAssignament "N*"  o--*  "N*" access.Role: roles
access.User "1"  o--  "N*" access.UserConsentPurposes: user  
access.ConsentPurpose "1"  o--  "N*" access.UserConsentPurposes: consentPurpose  
access.RelyingParty "1"  o--  "N*" access.Role: relyingParty  
access.User "1"  o--  "N*" access.UserGroupMembership: user  
access.RelyingParty "1"  o--  "N*" access.UserGroupMembership: relyingParty  
access.TrustedClient "1"  o--  "N*" access.UserGroupMembership: trustedClient  
access.User "1"  o--  "N*" access.UserAccessTemporalCode: user  
access.User "1"  o--  "N*" access.UserAcceptedTermnsOfUse: user  
access.TenantTermsOfUse "1"  o--  "N*" access.UserAcceptedTermnsOfUse: conditions  
access.User "1"  o--  "N*" access.UserProfile: user  
access.TrustedClientAllowedRedirect "N*"  o--  "N*" access.TrustedClient: allowedRedirects  
access.Tenant "1"  o--  "N*" access.TenantConfig: tenant  
access.Tenant "1"  o--  "N*" access.ConsentPurpose: tenant  
access.Tenant "1"  o--  "N*" access.UserInvitation: tenant  
access.User "1"  o--  "N*" access.UserInvitation: invitedBy  
access.User "1"  o--  "N*" access.UserInvitation: acceptedBy  
access.Tenant "1"  o--  "N*" access.TenantLoginProvider: tenant  
access.Tenant "1"  o--  "N*" access.TenantTermsOfUse: tenant  
access.RelyingParty "1"  o--  "N*" access.TenantTermsOfUse: relyingParty  
access.User "1"  o--  "N*" access.UserConsentedScopes: user  
access.TrustedClient "1"  o--  "N*" access.UserConsentedScopes: trustedClient  
access.User "1"  o--  "N*" access.UserWebauthnCredential: user  
access.Tenant "1"  o--  "N*" access.User: tenant  

footer Generado el %date("dd.MM.yyyy' a las 'HH:mm")
@enduml
